<svg width="256" height="256" viewBox="0 0 256 256" xmlns="http://www.w3.org/2000/svg" role="img" aria-label="RAPIDRY logo">
  <path d="M38 102C42 66 78 44 128 44C178 44 214 66 218 102C198 114 164 122 128 122C92 122 58 114 38 102Z" fill="#D6B97B"/>
  <path d="M40 106C42 148 57 187 86 223L124 170L40 106Z" fill="#F3EFE6"/>
  <path d="M216 106C214 148 199 187 170 223L132 170L216 106Z" fill="#F3EFE6"/>
  <path d="M32 104C35 58 76 30 128 30C180 30 221 58 224 104" stroke="#F3EFE6" stroke-width="7" stroke-linecap="round"/>
</svg>
